<svg id="layer_1" data-name="layer 1" xmlns="http://www.w3.org/2000/svg" xmlns:xlink="http://www.w3.org/1999/xlink" viewBox="0 0 122 28.6"><defs><style>.cls-1{fill:url(#1234_137);}.cls-2{fill:#edc620;opacity:0.19;}.cls-3{fill:url(#1234_77);}.cls-4{fill:url(#1234_131);}.cls-5{fill:#2b2a28;}</style><linearGradient id="1234_137" x1="21.32" y1="14.49" x2="30.38" y2="14.49" gradientUnits="userSpaceOnUse"><stop offset="0" stop-color="#508ef2"/><stop offset="0.99" stop-color="#0c4fd5"/></linearGradient><linearGradient id="1234_77" x1="7.76" y1="13.73" x2="33.75" y2="20.69" gradientUnits="userSpaceOnUse"><stop offset="0" stop-color="#23d8cb"/><stop offset="1" stop-color="#2371c9"/></linearGradient><linearGradient id="1234_131" y1="14.49" x2="17.79" y2="14.49" gradientUnits="userSpaceOnUse"><stop offset="0" stop-color="#50e6f2"/><stop offset="0.99" stop-color="#0c65d5"/></linearGradient></defs><title></title><rect class="cls-1" x="21.32" y="12.81" width="9.06" height="3.36" rx="1.64"/><path class="cls-2" d="M20.16,28.67q-.24-.15-.48-.33Z" transform="translate(-4 -1)"/><path class="cls-3" d="M32.39,25.18A4.38,4.38,0,0,1,28,29.57,4.37,4.37,0,0,1,25.76,29l-.48-.33-4.61-3.17-2.24-1.53-2.15,1.48L12,28.32l-1.22.84a1.3,1.3,0,0,1-.31.16l-.15.06A4.29,4.29,0,0,1,9,29.6a4.23,4.23,0,0,1-4.24-4.23,3.15,3.15,0,0,1,0-.53.38.38,0,0,1,0-.1A1.74,1.74,0,0,1,5,24.27l.89-1.75,1.54-3a1.68,1.68,0,0,1,3.17.77,1.73,1.73,0,0,1-.18.76l-.15.29-2,3.91a.67.67,0,0,0-.09.34.7.7,0,0,0,.71.7.68.68,0,0,0,.35-.09l.08-.05,3.58-2.46,3.57-2.46.58-.4.08,0a2.52,2.52,0,0,1,.54-.21,2.89,2.89,0,0,1,.84-.12,3,3,0,0,1,.79.11l.11,0,.11,0,.14.08,1.17.8,3.07,2.12,3.78,2.59h0a.94.94,0,0,0,.54.17A1,1,0,0,0,29.05,25h0l-2.12-4L19.66,7,18.41,4.62,17.18,7,12.62,16a1.68,1.68,0,0,1-3.17-.77,1.76,1.76,0,0,1,.18-.76l5.9-11.57.17-.33a3.33,3.33,0,0,1,.49-.63,3.13,3.13,0,0,1,4.71.34h0a1.4,1.4,0,0,1,.22.32L31.82,23l.15.28a4.43,4.43,0,0,1,.32.95A4.23,4.23,0,0,1,32.39,25.18Z" transform="translate(-4 -1)"/><rect class="cls-4" y="12.81" width="17.79" height="3.36" rx="1.64"/><path class="cls-5" d="M52.49,20.71h-8L43.3,24a1.37,1.37,0,0,1-.54.71,1.44,1.44,0,0,1-.8.24,1.58,1.58,0,0,1-1-.37,1.13,1.13,0,0,1-.45-.91,1.18,1.18,0,0,1,.1-.48L46.14,9.2a2.94,2.94,0,0,1,1-1.45,2.47,2.47,0,0,1,1.37-.36,3.42,3.42,0,0,1,.91.1,1.88,1.88,0,0,1,.76.53,3.84,3.84,0,0,1,.71,1.18l5.57,14a1.18,1.18,0,0,1,.1.48,1.13,1.13,0,0,1-.45.91,1.58,1.58,0,0,1-1,.37,1.42,1.42,0,0,1-.8-.24,1.37,1.37,0,0,1-.54-.71Zm-4-10.41-3.17,8.29h6.33Z" transform="translate(-4 -1)"/><path class="cls-5" d="M59.31,24.48a1.15,1.15,0,0,1-.39-.93V14a1.1,1.1,0,0,1,.4-.91,1.39,1.39,0,0,1,.93-.33,1.43,1.43,0,0,1,.93.31,1,1,0,0,1,.4.85v.83a4,4,0,0,1,3.83-2.16,4.23,4.23,0,0,1,2.55.75,3.65,3.65,0,0,1,1.42,2,4,4,0,0,1,1.63-2,4.77,4.77,0,0,1,2.58-.68,4.53,4.53,0,0,1,3.21,1.14A4.52,4.52,0,0,1,78,17.22v6.33a1.13,1.13,0,0,1-.4.93,1.42,1.42,0,0,1-.94.33,1.35,1.35,0,0,1-.92-.33,1.15,1.15,0,0,1-.39-.93V17.17a3,3,0,0,0-.63-2.08A2.31,2.31,0,0,0,73,14.4a2.88,2.88,0,0,0-2.28,1,4.16,4.16,0,0,0-.88,2.82v5.3a1.16,1.16,0,0,1-.4.94,1.39,1.39,0,0,1-.93.33,1.35,1.35,0,0,1-.92-.33,1.19,1.19,0,0,1-.39-.94V17.25a3.11,3.11,0,0,0-.64-2.14,2.28,2.28,0,0,0-1.79-.71,2.92,2.92,0,0,0-2.29,1A3.83,3.83,0,0,0,61.58,18v5.55a1.14,1.14,0,0,1-.41.93,1.42,1.42,0,0,1-.94.33A1.39,1.39,0,0,1,59.31,24.48Z" transform="translate(-4 -1)"/><path class="cls-5" d="M81.21,23.08a.52.52,0,0,1-.18-.43,1.28,1.28,0,0,1,.11-.52,1.85,1.85,0,0,1,.3-.51,1.52,1.52,0,0,1,.41-.39.8.8,0,0,1,.45-.16l.17,0a.48.48,0,0,1,.16.08,8.32,8.32,0,0,0,4.85,1.52,5.18,5.18,0,0,0,2.71-.62,2,2,0,0,0,1-1.83,2.12,2.12,0,0,0-.56-1.6,4.8,4.8,0,0,0-1.86-1L85,16.38a6.73,6.73,0,0,1-2.89-1.69,4.07,4.07,0,0,1-.92-2.8A4,4,0,0,1,83,8.39,7.73,7.73,0,0,1,87.6,7.1a11,11,0,0,1,3.34.51A7.41,7.41,0,0,1,93.4,8.87a.7.7,0,0,1,.24.32.87.87,0,0,1,.08.4,1.3,1.3,0,0,1-.32.85,1,1,0,0,1-.78.39,1.12,1.12,0,0,1-.59-.18,8.33,8.33,0,0,0-4.22-1.17,8,8,0,0,0-1.89.2,2.85,2.85,0,0,0-1.33.74,1.85,1.85,0,0,0-.53,1.36,1.89,1.89,0,0,0,.43,1.3,3,3,0,0,0,1.36.82l3.8,1.21a13.9,13.9,0,0,1,1.56.6,7.14,7.14,0,0,1,1.24.71,4.53,4.53,0,0,1,.94.91A4.16,4.16,0,0,1,94,18.49,4.93,4.93,0,0,1,94.16,20a4.62,4.62,0,0,1-.83,2.75A5.2,5.2,0,0,1,91,24.48a9.63,9.63,0,0,1-3.55.6A9.24,9.24,0,0,1,81.21,23.08Z" transform="translate(-4 -1)"/><path class="cls-5" d="M98.86,24A3.8,3.8,0,0,1,98,21.3V14.62H96.64a1,1,0,0,1-.71-.25.85.85,0,0,1-.26-.62.81.81,0,0,1,.24-.6,1,1,0,0,1,.7-.24H98l.36-3.26a1.27,1.27,0,0,1,1.3-1.16,1,1,0,0,1,.71.25,1,1,0,0,1,.27.75v3.42h2.1a.91.91,0,0,1,.7.25.88.88,0,0,1,.23.62.81.81,0,0,1-.23.6.91.91,0,0,1-.7.24h-2.1v6.05a5,5,0,0,0,.12,1.2,1.45,1.45,0,0,0,.42.75,1.13,1.13,0,0,0,.79.27h.11l.88-.06H103a1,1,0,0,1,.56.15.85.85,0,0,1,.35.38,1,1,0,0,1,.12.49,1.16,1.16,0,0,1-.05.34.61.61,0,0,1-.15.26,1,1,0,0,1-.21.19,1,1,0,0,1-.3.14l-.34.08-.4.05-.41,0h-.91A3.14,3.14,0,0,1,98.86,24Z" transform="translate(-4 -1)"/><path class="cls-5" d="M106.59,24.08a3,3,0,0,1-1.19-2.57,5.52,5.52,0,0,1,.1-1.13,2.41,2.41,0,0,1,.35-.87,3,3,0,0,1,.55-.66,2.69,2.69,0,0,1,.83-.46,9.05,9.05,0,0,1,1-.3,9.5,9.5,0,0,1,1.34-.18c.54,0,1.06-.07,1.58-.08s1.14,0,1.87,0V16.75a2.05,2.05,0,0,0-2.28-2.36,7,7,0,0,0-1.45.17c-.51.12-.87.22-1.09.29l-1,.38-.1,0-.1,0H107a.81.81,0,0,1-.65-.31,1,1,0,0,1-.28-.7.71.71,0,0,1,.45-.68,9.74,9.74,0,0,1,4.42-1,5.43,5.43,0,0,1,3.52,1.05,4,4,0,0,1,1.3,3.28v6.6a1.18,1.18,0,0,1-.38.93,1.37,1.37,0,0,1-.92.33,1.39,1.39,0,0,1-.57-.12,1.13,1.13,0,0,1-.72-1.13v-.65A3.6,3.6,0,0,1,109.64,25,4.91,4.91,0,0,1,106.59,24.08Zm5.51-1.85a3.7,3.7,0,0,0,1-2.62V19.3h-1.39c-.38,0-.75,0-1.12.06a6.48,6.48,0,0,0-.91.11,3.77,3.77,0,0,0-.68.18,1.55,1.55,0,0,0-.5.26,1.28,1.28,0,0,0-.32.37,1.43,1.43,0,0,0-.19.49,3.67,3.67,0,0,0,0,.61,1.74,1.74,0,0,0,.54,1.42,2.17,2.17,0,0,0,1.43.45A3,3,0,0,0,112.1,22.23Z" transform="translate(-4 -1)"/><path class="cls-5" d="M119.44,24.49a1.14,1.14,0,0,1-.38-.93V14a1.14,1.14,0,0,1,.19-.68,1.15,1.15,0,0,1,.5-.41,1.57,1.57,0,0,1,.65-.13,1.48,1.48,0,0,1,.93.3,1,1,0,0,1,.37.83l0,1.49a3.63,3.63,0,0,1,1.24-1.87,3.21,3.21,0,0,1,2.1-.76,1,1,0,0,1,.44.09,1,1,0,0,1,.31.26,1.16,1.16,0,0,1,.18.37,1.52,1.52,0,0,1,.06.42,1.26,1.26,0,0,1-.23.75.72.72,0,0,1-.62.31,6.06,6.06,0,0,0-1.35.13,3.38,3.38,0,0,0-1.07.45,2,2,0,0,0-.76.92A3.61,3.61,0,0,0,121.7,18v5.61a1.12,1.12,0,0,1-.4.92,1.44,1.44,0,0,1-.94.33A1.41,1.41,0,0,1,119.44,24.49Z" transform="translate(-4 -1)"/></svg>