<svg id="hhhh" xmlns="http://www.w3.org/2000/svg" xmlns:xlink="http://www.w3.org/1999/xlink" viewBox="0 0 59.72 14"><defs><style>.cls-1{fill:url(#123456_137);}.cls-2{fill:#edc620;opacity:0.19;}.cls-3{fill:url(#123456_77);}.cls-4{fill:url(#123456_131);}.cls-5{fill:#2b2a28;}</style><linearGradient id="123456_137" x1="10.43" y1="7.09" x2="14.87" y2="7.09" gradientUnits="userSpaceOnUse"><stop offset="0" stop-color="#508ef2"/><stop offset="0.99" stop-color="#0c4fd5"/></linearGradient><linearGradient id="123456_77" x1="3.84" y1="7.23" x2="16.56" y2="10.64" gradientUnits="userSpaceOnUse"><stop offset="0" stop-color="#23d8cb"/><stop offset="1" stop-color="#2371c9"/></linearGradient><linearGradient id="123456_131" y1="7.09" x2="8.71" y2="7.09" gradientUnits="userSpaceOnUse"><stop offset="0" stop-color="#50e6f2"/><stop offset="0.99" stop-color="#0c65d5"/></linearGradient></defs><title>amstar</title><rect id="_4" data-name="4" class="cls-1" x="10.43" y="6.27" width="4.44" height="1.64" rx="0.82"/><path id="_3" data-name="3" class="cls-2" d="M9.91,14.55l-.23-.17Z" transform="translate(-2 -1)"/><path id="_2" data-name="2" class="cls-3" d="M15.9,12.84A2.15,2.15,0,0,1,13.75,15a2.35,2.35,0,0,1-.54-.07,2.13,2.13,0,0,1-.56-.23l-.24-.17L10.16,13l-1.09-.75L8,13,5.94,14.37l-.6.41a.55.55,0,0,1-.15.08l-.08,0a2,2,0,0,1-.66.11,2.07,2.07,0,0,1-2.07-2.07,2.26,2.26,0,0,1,0-.26.09.09,0,0,0,0-.05.7.7,0,0,1,.08-.23l.44-.86.75-1.47a.82.82,0,1,1,1.46.74L5.06,11l-1,1.91A.47.47,0,0,0,4,13a.35.35,0,0,0,.35.34.34.34,0,0,0,.17,0l0,0,1.75-1.2L8.1,10.89l.28-.19,0,0,.26-.1a1.42,1.42,0,0,1,.42-.06,1.74,1.74,0,0,1,.39.05l0,0,.05,0,.07,0,.57.39,1.51,1,1.84,1.26h0a.45.45,0,0,0,.26.08.47.47,0,0,0,.47-.47.4.4,0,0,0-.06-.22h0l-1-2L9.67,3.94,9.05,2.77,8.45,4,6.22,8.33A.82.82,0,0,1,4.67,8a.84.84,0,0,1,.09-.37L7.64,1.92l.09-.16A1.49,1.49,0,0,1,8,1.44,1.55,1.55,0,0,1,9.05,1a1.52,1.52,0,0,1,1.22.61h0a.83.83,0,0,1,.11.15l5.23,10,.07.13a2.36,2.36,0,0,1,.16.47A2.31,2.31,0,0,1,15.9,12.84Z" transform="translate(-2 -1)"/><rect id="_1" data-name="1" class="cls-4" y="6.27" width="8.71" height="1.64" rx="0.82"/><g id="_11" data-name="11"><path id="_6" data-name="6" class="cls-5" d="M25.74,10.65h-3.9l-.6,1.59a.74.74,0,0,1-.27.35.77.77,0,0,1-.39.11.79.79,0,0,1-.51-.18.53.53,0,0,1-.22-.44.69.69,0,0,1,0-.24L22.63,5a1.5,1.5,0,0,1,.48-.72,1.23,1.23,0,0,1,.68-.17,1.44,1.44,0,0,1,.44,0,.84.84,0,0,1,.38.26A2.06,2.06,0,0,1,25,5l2.73,6.82a.69.69,0,0,1,.05.24.56.56,0,0,1-.22.44.79.79,0,0,1-.51.18.77.77,0,0,1-.39-.11.74.74,0,0,1-.27-.35Zm-1.95-5.1L22.24,9.61h3.1Z" transform="translate(-2 -1)"/><path id="_5" data-name="5" class="cls-5" d="M29.07,12.49a.57.57,0,0,1-.19-.45V7.38a.56.56,0,0,1,.2-.45.73.73,0,0,1,.46-.16.72.72,0,0,1,.45.15.5.5,0,0,1,.19.42v.4a2,2,0,0,1,1.88-1,2.12,2.12,0,0,1,1.25.36A1.84,1.84,0,0,1,34,8a2,2,0,0,1,.8-1,2.34,2.34,0,0,1,1.26-.33,2.24,2.24,0,0,1,1.58.56,2.19,2.19,0,0,1,.6,1.69V12a.55.55,0,0,1-.2.45.69.69,0,0,1-.46.17.66.66,0,0,1-.45-.17.54.54,0,0,1-.19-.45V8.92a1.43,1.43,0,0,0-.31-1,1.11,1.11,0,0,0-.88-.34,1.44,1.44,0,0,0-1.12.5,2.07,2.07,0,0,0-.43,1.38V12a.56.56,0,0,1-.19.46.69.69,0,0,1-.91,0,.56.56,0,0,1-.19-.46V9a1.51,1.51,0,0,0-.31-1.05,1.13,1.13,0,0,0-.88-.35A1.43,1.43,0,0,0,30.6,8a1.89,1.89,0,0,0-.42,1.29V12a.54.54,0,0,1-.19.45.73.73,0,0,1-.47.17A.68.68,0,0,1,29.07,12.49Z" transform="translate(-2 -1)"/><path id="_4-2" data-name="4" class="cls-5" d="M39.79,11.81a.26.26,0,0,1-.09-.21.65.65,0,0,1,.06-.26,1.23,1.23,0,0,1,.14-.25,1,1,0,0,1,.21-.19.4.4,0,0,1,.22-.08l.08,0s.05,0,.08,0a4.07,4.07,0,0,0,2.37.75,2.59,2.59,0,0,0,1.33-.3,1,1,0,0,0,.51-.9,1.08,1.08,0,0,0-.27-.79,2.43,2.43,0,0,0-.92-.48l-1.87-.62a3.35,3.35,0,0,1-1.41-.83,2,2,0,0,1-.45-1.37,2,2,0,0,1,.88-1.72A3.82,3.82,0,0,1,42.92,4a5.2,5.2,0,0,1,1.63.26,3.58,3.58,0,0,1,1.21.61.48.48,0,0,1,.12.16.41.41,0,0,1,0,.19.6.6,0,0,1-.16.42.47.47,0,0,1-.38.19.55.55,0,0,1-.29-.09A4.08,4.08,0,0,0,43,5.15a3.63,3.63,0,0,0-.93.1,1.43,1.43,0,0,0-.65.36.88.88,0,0,0-.26.67,1,1,0,0,0,.21.64,1.47,1.47,0,0,0,.67.39l1.86.6a6.42,6.42,0,0,1,.76.29,4,4,0,0,1,.61.35,1.89,1.89,0,0,1,.45.44,2.16,2.16,0,0,1,.28.57,2.37,2.37,0,0,1,.1.72,2.27,2.27,0,0,1-.41,1.35,2.51,2.51,0,0,1-1.14.86,4.66,4.66,0,0,1-1.74.3A4.54,4.54,0,0,1,39.79,11.81Z" transform="translate(-2 -1)"/><path id="_3-2" data-name="3" class="cls-5" d="M48.43,12.25A1.86,1.86,0,0,1,48,10.94V7.67h-.66A.42.42,0,0,1,47,7.54a.38.38,0,0,1-.13-.3A.38.38,0,0,1,47,7a.45.45,0,0,1,.34-.12H48l.17-1.6a.62.62,0,0,1,.64-.56.51.51,0,0,1,.35.12.5.5,0,0,1,.13.37V6.83h1a.45.45,0,0,1,.34.12.44.44,0,0,1,.11.3.39.39,0,0,1-.11.3.44.44,0,0,1-.34.12h-1v3a2.43,2.43,0,0,0,.06.59.79.79,0,0,0,.2.36.56.56,0,0,0,.39.13H50l.43,0h0a.5.5,0,0,1,.27.08.48.48,0,0,1,.17.18.53.53,0,0,1,.06.24.43.43,0,0,1,0,.17.33.33,0,0,1-.07.13.43.43,0,0,1-.1.09.52.52,0,0,1-.15.07l-.17,0-.19,0h-.65A1.53,1.53,0,0,1,48.43,12.25Z" transform="translate(-2 -1)"/><path id="_2-2" data-name="2" class="cls-5" d="M52.22,12.3A1.5,1.5,0,0,1,51.63,11a3,3,0,0,1,0-.55,1.38,1.38,0,0,1,.17-.43,1.43,1.43,0,0,1,.27-.32,1.22,1.22,0,0,1,.41-.23A3.23,3.23,0,0,1,53,9.37a4.8,4.8,0,0,1,.66-.09c.26,0,.52,0,.77,0h.92V8.71c0-.77-.37-1.16-1.12-1.16a3.14,3.14,0,0,0-.71.09c-.25.06-.42.1-.53.14L52.55,8H52.4a.39.39,0,0,1-.32-.16.49.49,0,0,1-.14-.34.36.36,0,0,1,.22-.33,4.76,4.76,0,0,1,2.16-.48,2.68,2.68,0,0,1,1.73.51,2,2,0,0,1,.64,1.61V12a.57.57,0,0,1-.19.45.68.68,0,0,1-.45.17.67.67,0,0,1-.28-.06.57.57,0,0,1-.35-.56v-.31a1.77,1.77,0,0,1-1.71,1A2.4,2.4,0,0,1,52.22,12.3Zm2.69-.91a1.77,1.77,0,0,0,.48-1.28V10H54.7l-.54,0-.45,0a2.62,2.62,0,0,0-.33.09,1,1,0,0,0-.25.13.65.65,0,0,0-.15.18.64.64,0,0,0-.1.24,2.66,2.66,0,0,0,0,.3.88.88,0,0,0,.26.7,1.1,1.1,0,0,0,.7.22A1.43,1.43,0,0,0,54.91,11.39Z" transform="translate(-2 -1)"/><path id="_1-2" data-name="1" class="cls-5" d="M58.51,12.5a.56.56,0,0,1-.19-.46V7.37a.57.57,0,0,1,.1-.34.52.52,0,0,1,.24-.2A.83.83,0,0,1,59,6.77a.68.68,0,0,1,.45.15.44.44,0,0,1,.18.4v.74a1.69,1.69,0,0,1,.61-.92,1.55,1.55,0,0,1,1-.37.54.54,0,0,1,.22,0,.47.47,0,0,1,.15.13.51.51,0,0,1,.09.18.69.69,0,0,1,0,.2.62.62,0,0,1-.11.37.37.37,0,0,1-.31.15,2.62,2.62,0,0,0-.66.07,1.41,1.41,0,0,0-.52.22.94.94,0,0,0-.38.45,1.93,1.93,0,0,0-.13.72V12a.53.53,0,0,1-.19.45.71.71,0,0,1-.46.17A.69.69,0,0,1,58.51,12.5Z" transform="translate(-2 -1)"/></g></svg>