<svg id="hhhh" xmlns="http://www.w3.org/2000/svg" xmlns:xlink="http://www.w3.org/1999/xlink" viewBox="0 0 281.53 66"><defs><style>.cls-1{fill:url(#123456_137);}.cls-2{fill:#edc620;opacity:0.19;}.cls-3{fill:url(#123456_77);}.cls-4{fill:url(#123456_131);}.cls-5{fill:#2b2a28;}</style><linearGradient id="123456_137" x1="49.19" y1="33.44" x2="70.1" y2="33.44" gradientUnits="userSpaceOnUse"><stop offset="0" stop-color="#508ef2"/><stop offset="0.99" stop-color="#0c4fd5"/></linearGradient><linearGradient id="123456_77" x1="9.42" y1="29.87" x2="69.39" y2="45.94" gradientUnits="userSpaceOnUse"><stop offset="0" stop-color="#23d8cb"/><stop offset="1" stop-color="#2371c9"/></linearGradient><linearGradient id="123456_131" y1="33.44" x2="41.05" y2="33.44" gradientUnits="userSpaceOnUse"><stop offset="0" stop-color="#50e6f2"/><stop offset="0.99" stop-color="#0c65d5"/></linearGradient></defs><title>amstar2</title><rect id="_4" data-name="4" class="cls-1" x="49.19" y="29.56" width="20.91" height="7.75" rx="0.82"/><path id="_3" data-name="3" class="cls-2" d="M38,64.36a9.53,9.53,0,0,1-1.11-.77Z" transform="translate(-0.74 -0.5)"/><path id="_2" data-name="2" class="cls-3" d="M66.26,56.29a10.16,10.16,0,0,1-12.69,9.83A9.82,9.82,0,0,1,51,65l-1.12-.76L39.2,57,34,53.41l-5,3.41-9.78,6.72-2.81,1.93a3.53,3.53,0,0,1-.71.39l-.35.13a9.78,9.78,0,0,1-12.9-9.26,8.11,8.11,0,0,1,.08-1.21.91.91,0,0,1,0-.23A3.62,3.62,0,0,1,3,54.21l2.06-4.05,3.56-7A3.87,3.87,0,0,1,15.93,45a3.8,3.8,0,0,1-.43,1.75l-.34.67-4.6,9a1.55,1.55,0,0,0-.2.77,1.63,1.63,0,0,0,2.45,1.41l.17-.12,8.26-5.67,8.25-5.67,1.34-.92.19-.13a7.27,7.27,0,0,1,1.23-.47,6.91,6.91,0,0,1,2-.27,6.83,6.83,0,0,1,1.82.24l.25.06.26.1a2,2,0,0,1,.32.18l2.69,1.86,7.1,4.88,8.71,6h0a2.14,2.14,0,0,0,1.22.37,2.2,2.2,0,0,0,2.21-2.2,2.25,2.25,0,0,0-.25-1l0,0-4.87-9.31L36.88,14.36,34,8.85,31.16,14.4,20.64,35a3.88,3.88,0,0,1-6.91-3.52L27.35,4.82l.39-.76A7,7,0,0,1,28.87,2.6a7.24,7.24,0,0,1,10.88.78s0,0,0,0a3.48,3.48,0,0,1,.51.74L64.94,51.3l.34.64a9.66,9.66,0,0,1,.74,2.2A9.51,9.51,0,0,1,66.26,56.29Z" transform="translate(-0.74 -0.5)"/><rect id="_1" data-name="1" class="cls-4" y="29.56" width="41.05" height="7.75" rx="0.82"/><g id="_11" data-name="11"><path id="_6" data-name="6" class="cls-5" d="M112.64,46H94.28l-2.86,7.5a3.18,3.18,0,0,1-3.08,2.19,3.7,3.7,0,0,1-2.41-.85,2.6,2.6,0,0,1-1-2.09,3.13,3.13,0,0,1,.22-1.11L98,19.43a6.94,6.94,0,0,1,2.31-3.36,5.7,5.7,0,0,1,3.16-.83,7.36,7.36,0,0,1,2.1.25,4,4,0,0,1,1.76,1.22,8.66,8.66,0,0,1,1.64,2.72L121.8,51.62a2.93,2.93,0,0,1,.22,1.11,2.57,2.57,0,0,1-1,2.09,3.65,3.65,0,0,1-2.4.85,3.27,3.27,0,0,1-1.83-.54,3.18,3.18,0,0,1-1.25-1.65Zm-9.2-24-7.3,19.13h14.61Z" transform="translate(-0.74 -0.5)"/><path id="_5" data-name="5" class="cls-5" d="M128.37,54.69a2.68,2.68,0,0,1-.9-2.16v-22a2.59,2.59,0,0,1,.91-2.1,3.28,3.28,0,0,1,2.17-.76,3.42,3.42,0,0,1,2.14.7,2.35,2.35,0,0,1,.91,2v1.92q2.67-5,8.84-5a9.87,9.87,0,0,1,5.9,1.72,8.5,8.5,0,0,1,3.26,4.5,9.45,9.45,0,0,1,3.76-4.67,11.16,11.16,0,0,1,6-1.55A10.42,10.42,0,0,1,168.73,30q2.84,2.63,2.84,8v14.6a2.66,2.66,0,0,1-.92,2.16,3.27,3.27,0,0,1-2.17.76,3.14,3.14,0,0,1-2.13-.76,2.67,2.67,0,0,1-.89-2.16V37.81A6.93,6.93,0,0,0,164,33a5.35,5.35,0,0,0-4.15-1.59,6.69,6.69,0,0,0-5.27,2.34,9.63,9.63,0,0,0-2,6.52V52.51a2.71,2.71,0,0,1-.9,2.16,3.18,3.18,0,0,1-2.15.78,3.14,3.14,0,0,1-2.14-.78,2.73,2.73,0,0,1-.89-2.16V38A7.2,7.2,0,0,0,145,33.07a5.25,5.25,0,0,0-4.14-1.64,6.67,6.67,0,0,0-5.27,2.23,8.84,8.84,0,0,0-2,6.07v12.8a2.64,2.64,0,0,1-.93,2.16,3.31,3.31,0,0,1-2.18.76A3.17,3.17,0,0,1,128.37,54.69Z" transform="translate(-0.74 -0.5)"/><path id="_4-2" data-name="4" class="cls-5" d="M178.9,51.45a1.2,1.2,0,0,1-.42-1,3,3,0,0,1,.27-1.19,4.77,4.77,0,0,1,.68-1.18,3.9,3.9,0,0,1,.95-.91,1.9,1.9,0,0,1,1.05-.36,1.31,1.31,0,0,1,.38.06,1.37,1.37,0,0,1,.37.17,19.26,19.26,0,0,0,11.19,3.52,12.06,12.06,0,0,0,6.26-1.43A4.62,4.62,0,0,0,202,44.9a5,5,0,0,0-1.29-3.7,11.11,11.11,0,0,0-4.29-2.27l-8.83-3a15.3,15.3,0,0,1-6.67-3.9,9.41,9.41,0,0,1-2.11-6.46A9.41,9.41,0,0,1,183,17.54a17.89,17.89,0,0,1,10.64-3,25,25,0,0,1,7.7,1.19A16.87,16.87,0,0,1,207,18.65a1.85,1.85,0,0,1,.57.74,2.41,2.41,0,0,1,.18.93,3,3,0,0,1-.75,2,2.3,2.3,0,0,1-1.81.89,2.65,2.65,0,0,1-1.36-.42,19.22,19.22,0,0,0-9.71-2.69,18.08,18.08,0,0,0-4.38.47,6.64,6.64,0,0,0-3.07,1.69,4.29,4.29,0,0,0-1.22,3.14,4.48,4.48,0,0,0,1,3,6.84,6.84,0,0,0,3.15,1.87l8.77,2.81a33.11,33.11,0,0,1,3.6,1.37,17.06,17.06,0,0,1,2.86,1.65,8.78,8.78,0,0,1,3.46,4.78,11.62,11.62,0,0,1,.47,3.39,10.58,10.58,0,0,1-1.92,6.34,11.7,11.7,0,0,1-5.41,4.07,22.06,22.06,0,0,1-8.19,1.39Q184.29,56.06,178.9,51.45Z" transform="translate(-0.74 -0.5)"/><path id="_3-2" data-name="3" class="cls-5" d="M219.63,53.52a8.72,8.72,0,0,1-2-6.18V31.93H214.5a2.22,2.22,0,0,1-1.64-.59,1.9,1.9,0,0,1-.58-1.41,1.88,1.88,0,0,1,.55-1.39,2.21,2.21,0,0,1,1.62-.56h3.13l.84-7.52a2.91,2.91,0,0,1,3-2.67,2.32,2.32,0,0,1,1.62.57,2.23,2.23,0,0,1,.63,1.74V28h4.86a2.09,2.09,0,0,1,1.59.57,2,2,0,0,1,.55,1.43,2,2,0,0,1-.53,1.41,2.16,2.16,0,0,1-1.61.54h-4.86v14a11.79,11.79,0,0,0,.27,2.76,3.36,3.36,0,0,0,1,1.72,2.61,2.61,0,0,0,1.83.63H227l2-.14h.19a2.25,2.25,0,0,1,2.1,1.22,2.58,2.58,0,0,1,.26,1.14,2.74,2.74,0,0,1-.11.79,1.6,1.6,0,0,1-.33.6,3.5,3.5,0,0,1-.5.44,2.37,2.37,0,0,1-.68.31c-.27.07-.54.14-.79.19a5.66,5.66,0,0,1-.92.11l-.95,0-1,0h-1.09A7.2,7.2,0,0,1,219.63,53.52Z" transform="translate(-0.74 -0.5)"/><path id="_2-2" data-name="2" class="cls-5" d="M237.47,53.76a7,7,0,0,1-2.75-5.92,12.75,12.75,0,0,1,.24-2.61,5.87,5.87,0,0,1,.8-2A7.34,7.34,0,0,1,237,41.69a5.77,5.77,0,0,1,1.9-1.06,20.94,20.94,0,0,1,2.43-.69,23.84,23.84,0,0,1,3.1-.42c1.24-.1,2.45-.16,3.63-.19s2.63,0,4.34,0V36.84q0-5.45-5.28-5.44a14.94,14.94,0,0,0-3.33.4,23.43,23.43,0,0,0-2.52.67c-.49.17-1.25.47-2.29.87a.92.92,0,0,1-.23.09l-.24,0h-.22a1.92,1.92,0,0,1-1.51-.72,2.39,2.39,0,0,1-.63-1.61,1.65,1.65,0,0,1,1-1.58,22.46,22.46,0,0,1,10.19-2.25q5.15,0,8.14,2.43t3,7.56V52.53a2.7,2.7,0,0,1-.89,2.16,3.13,3.13,0,0,1-2.11.76,3.25,3.25,0,0,1-1.34-.28,2.61,2.61,0,0,1-1.63-2.61v-1.5a8.34,8.34,0,0,1-8.06,4.78A11.39,11.39,0,0,1,237.47,53.76Zm12.72-4.27a8.48,8.48,0,0,0,2.22-6v-.72q-1.89,0-3.21,0t-2.58.12c-.84.07-1.54.15-2.1.25a10.6,10.6,0,0,0-1.57.42,4,4,0,0,0-1.16.61,3,3,0,0,0-.74.85,3.43,3.43,0,0,0-.43,1.12,7.71,7.71,0,0,0-.12,1.43,4,4,0,0,0,1.24,3.27,5,5,0,0,0,3.31,1A6.84,6.84,0,0,0,250.19,49.49Z" transform="translate(-0.74 -0.5)"/><path id="_1-2" data-name="1" class="cls-5" d="M267.13,54.7a2.62,2.62,0,0,1-.89-2.14v-22a2.65,2.65,0,0,1,.46-1.57,2.61,2.61,0,0,1,1.15-.94,3.72,3.72,0,0,1,1.5-.29,3.39,3.39,0,0,1,2.14.69,2.23,2.23,0,0,1,.86,1.92l-.08,3.44a8.31,8.31,0,0,1,2.87-4.33A7.46,7.46,0,0,1,280,27.68a2.19,2.19,0,0,1,1,.22,2.11,2.11,0,0,1,.72.6,2.74,2.74,0,0,1,.41.84,3.23,3.23,0,0,1,.14,1,2.85,2.85,0,0,1-.52,1.72,1.72,1.72,0,0,1-1.45.72,13.78,13.78,0,0,0-3.1.31,7.65,7.65,0,0,0-2.48,1A4.73,4.73,0,0,0,273,36.23a8.39,8.39,0,0,0-.61,3.39V52.56a2.61,2.61,0,0,1-.93,2.13,3.33,3.33,0,0,1-2.18.76A3.15,3.15,0,0,1,267.13,54.7Z" transform="translate(-0.74 -0.5)"/></g></svg>