<svg id="图层_1" data-name="图层 1" xmlns="http://www.w3.org/2000/svg" xmlns:xlink="http://www.w3.org/1999/xlink" viewBox="0 0 120.02 113"><defs><style>.cls-1{fill:url(#未命名的渐变_137);}.cls-2{fill:#edc620;opacity:0.19;}.cls-3{fill:url(#未命名的渐变_77);}.cls-4{fill:url(#未命名的渐变_131);}</style><linearGradient id="未命名的渐变_137" x1="84.21" y1="57.25" x2="120.02" y2="57.25" gradientUnits="userSpaceOnUse"><stop offset="0" stop-color="#508ef2"/><stop offset="0.99" stop-color="#0c4fd5"/></linearGradient><linearGradient id="未命名的渐变_77" x1="163.87" y1="177.29" x2="266.54" y2="204.8" gradientUnits="userSpaceOnUse"><stop offset="0" stop-color="#23d8cb"/><stop offset="1" stop-color="#2371c9"/></linearGradient><linearGradient id="未命名的渐变_131" y1="57.25" x2="70.29" y2="57.25" gradientUnits="userSpaceOnUse"><stop offset="0" stop-color="#50e6f2"/><stop offset="0.99" stop-color="#0c65d5"/></linearGradient></defs><title>AmStar logo</title><rect class="cls-1" x="84.21" y="50.61" width="35.81" height="13.26" rx="3.27"/><path class="cls-2" d="M212.87,236.33A16.55,16.55,0,0,1,211,235Z" transform="translate(-149 -127)"/><path class="cls-3" d="M261.18,222.53a17.39,17.39,0,0,1-21.73,16.81,16.72,16.72,0,0,1-4.48-1.87l-1.91-1.31-18.21-12.51L206,217.58l-8.52,5.85-16.75,11.51-4.8,3.3a7.31,7.31,0,0,1-1.22.67c-.2.08-.41.15-.61.21a16.73,16.73,0,0,1-22.08-15.85,15.5,15.5,0,0,1,.13-2.06c0-.14,0-.27.06-.41a6.41,6.41,0,0,1,.62-1.85l3.53-6.93,6.08-11.92a6.63,6.63,0,0,1,12.54,3,6.57,6.57,0,0,1-.73,3l-.58,1.15-7.88,15.46a2.68,2.68,0,0,0-.34,1.33,2.79,2.79,0,0,0,2.78,2.79,2.75,2.75,0,0,0,1.42-.39l.28-.2,14.14-9.72,14.12-9.7,2.3-1.58.33-.22a12.56,12.56,0,0,1,5.44-1.27,12,12,0,0,1,3.13.41l.42.11.44.18a2.69,2.69,0,0,1,.55.31l4.61,3.17,12.15,8.35,14.91,10.25,0,0a3.79,3.79,0,0,0,5.45-4.92l0,0-8.35-16-28.74-54.93-4.94-9.44-4.85,9.52-18,35.33a6.63,6.63,0,0,1-11.82-6l23.31-45.71.67-1.31a13.08,13.08,0,0,1,1.94-2.5,12.4,12.4,0,0,1,18.62,1.34s0,0,0,0a6.34,6.34,0,0,1,.87,1.27L258.93,214l.57,1.1a17.37,17.37,0,0,1,1.28,3.76A16.78,16.78,0,0,1,261.18,222.53Z" transform="translate(-149 -127)"/><rect class="cls-4" y="50.61" width="70.29" height="13.26" rx="3.27"/></svg>